<?xml version="1.0" encoding="UTF-8"?>
<svg xmlns="http://www.w3.org/2000/svg" xmlns:xlink="http://www.w3.org/1999/xlink" viewBox="0 0 128 128" width="128px" height="128px">
<g id="surface107821341">
<path style=" stroke:none;fill-rule:nonzero;fill:rgb(10.196079%,73.725492%,61.176473%);fill-opacity:1;" d="M 84.476562 20.007812 C 83.648438 19.929688 82.808594 20.371094 82.414062 21.179688 C 81.925781 22.1875 82.308594 23.414062 83.265625 23.945312 C 95.527344 30.824219 103.828125 44.078125 103.828125 59.304688 C 103.828125 76.378906 93.371094 90.988281 78.585938 96.898438 L 78.585938 80.023438 C 81.148438 79.199219 83.085938 76.78125 83.085938 73.890625 C 83.085938 71.496094 81.855469 69.425781 79.960938 68.304688 C 81.460938 53.753906 87.992188 57.585938 87.992188 52.953125 L 87.992188 50.257812 C 87.992188 43.300781 72.125 20.644531 64.703125 20.117188 C 64.25 20.082031 63.796875 20.082031 63.328125 20.117188 C 55.886719 20.664062 40.023438 43.304688 40.023438 50.257812 L 40.023438 52.96875 C 40.023438 57.601562 46.582031 53.753906 48.0625 68.320312 C 46.152344 69.4375 44.9375 71.507812 44.9375 73.90625 C 44.9375 76.796875 46.851562 79.214844 49.414062 80.039062 L 49.414062 96.914062 C 34.625 91.023438 24.171875 76.417969 24.171875 59.320312 C 24.171875 44.113281 32.472656 30.859375 44.734375 23.960938 C 45.710938 23.414062 46.074219 22.203125 45.585938 21.195312 C 45.0625 20.117188 43.757812 19.695312 42.710938 20.28125 C 29.171875 27.882812 20 42.515625 20 59.320312 C 20 80.3125 34.296875 97.90625 53.5625 102.664062 L 53.5625 83.625 C 54.933594 84.082031 56.292969 84.46875 57.71875 84.765625 L 57.71875 107.40625 C 34.28125 104.296875 16.148438 83.957031 16.148438 59.320312 C 16.148438 53.316406 17.234375 47.558594 19.203125 42.25 C 19.597656 41.191406 19.097656 40.019531 18.070312 39.578125 C 16.984375 39.101562 15.71875 39.644531 15.304688 40.78125 C 13.171875 46.546875 12 52.785156 12 59.320312 C 12 87.707031 34.136719 110.863281 61.890625 112 L 61.890625 85.296875 C 63.117188 85.367188 64.59375 85.390625 66.109375 85.296875 L 66.109375 111.976562 C 93.863281 110.859375 116 87.707031 116 59.320312 C 116 52.785156 114.828125 46.550781 112.695312 40.765625 C 112.28125 39.648438 111.015625 39.078125 109.929688 39.554688 C 108.902344 39.996094 108.398438 41.183594 108.796875 42.226562 C 110.765625 47.535156 111.851562 53.300781 111.851562 59.304688 C 111.851562 83.941406 93.738281 104.277344 70.28125 107.390625 L 70.28125 84.75 C 71.710938 84.472656 73.085938 84.085938 74.4375 83.609375 L 74.4375 102.648438 C 93.703125 97.910156 108 80.300781 108 59.304688 C 108 42.5 98.828125 27.863281 85.289062 20.265625 C 85.03125 20.121094 84.753906 20.035156 84.476562 20.007812 Z M 51.382812 69.5625 C 53.746094 69.5625 55.65625 71.503906 55.65625 73.898438 C 55.65625 76.273438 53.765625 78.234375 51.382812 78.234375 C 49 78.234375 47.101562 76.273438 47.101562 73.898438 C 47.101562 71.523438 49 69.5625 51.382812 69.5625 Z M 76.617188 69.570312 C 78.964844 69.570312 80.898438 71.492188 80.898438 73.90625 C 80.898438 76.300781 78.984375 78.242188 76.617188 78.242188 C 74.269531 78.242188 72.34375 76.320312 72.34375 73.90625 C 72.34375 71.511719 74.253906 69.570312 76.617188 69.570312 Z M 76.617188 69.570312 "/>
</g>
</svg>
