<?xml version="1.0" encoding="UTF-8"?>
<svg xmlns="http://www.w3.org/2000/svg" xmlns:xlink="http://www.w3.org/1999/xlink" viewBox="0 0 256 256" width="256px" height="256px">
<g id="surface108022668">
<path style=" stroke:none;fill-rule:nonzero;fill:rgb(10.196079%,73.725492%,61.176473%);fill-opacity:1;" d="M 158.226562 98.386719 C 157.289062 98.386719 156.34375 98.058594 155.585938 97.386719 C 153.929688 95.933594 153.769531 93.398438 155.226562 91.742188 L 160.515625 85.738281 C 161.980469 84.078125 164.507812 83.925781 166.160156 85.382812 C 167.816406 86.839844 167.976562 89.371094 166.515625 91.027344 L 161.226562 97.03125 C 160.4375 97.933594 159.332031 98.386719 158.226562 98.386719 Z M 158.226562 98.386719 "/>
<path style=" stroke:none;fill-rule:nonzero;fill:rgb(10.196079%,73.725492%,61.176473%);fill-opacity:1;" d="M 169.519531 113.519531 C 168.003906 113.519531 166.558594 112.660156 165.882812 111.195312 C 164.960938 109.1875 165.835938 106.8125 167.839844 105.886719 L 175.105469 102.535156 C 177.121094 101.613281 179.488281 102.484375 180.410156 104.492188 C 181.335938 106.5 180.460938 108.875 178.457031 109.800781 L 171.191406 113.152344 C 170.648438 113.402344 170.078125 113.519531 169.519531 113.519531 Z M 169.519531 113.519531 "/>
<path style=" stroke:none;fill-rule:nonzero;fill:rgb(10.196079%,73.725492%,61.176473%);fill-opacity:1;" d="M 173.6875 131.929688 C 171.503906 131.929688 169.71875 130.175781 169.6875 127.988281 C 169.65625 125.777344 171.425781 123.960938 173.628906 123.929688 L 181.625 123.816406 C 183.832031 123.941406 185.652344 125.550781 185.683594 127.757812 C 185.714844 129.96875 183.949219 131.785156 181.742188 131.816406 L 173.746094 131.929688 C 173.726562 131.929688 173.707031 131.929688 173.6875 131.929688 Z M 173.6875 131.929688 "/>
<path style=" stroke:none;fill-rule:nonzero;fill:rgb(10.196079%,73.725492%,61.176473%);fill-opacity:1;" d="M 177.429688 153.601562 C 176.902344 153.601562 176.367188 153.5 175.855469 153.28125 L 168.5 150.144531 C 166.46875 149.277344 165.523438 146.929688 166.390625 144.890625 C 167.261719 142.859375 169.621094 141.914062 171.644531 142.785156 L 179 145.921875 C 181.03125 146.789062 181.976562 149.136719 181.109375 151.171875 C 180.460938 152.6875 178.980469 153.601562 177.429688 153.601562 Z M 177.429688 153.601562 "/>
<path style=" stroke:none;fill-rule:nonzero;fill:rgb(10.196079%,73.725492%,61.176473%);fill-opacity:1;" d="M 164.652344 171.738281 C 163.578125 171.738281 162.515625 171.316406 161.730469 170.472656 L 156.273438 164.625 C 154.765625 163.011719 154.851562 160.480469 156.464844 158.972656 C 158.085938 157.464844 160.613281 157.546875 162.117188 159.164062 L 167.574219 165.011719 C 169.085938 166.625 168.996094 169.15625 167.382812 170.664062 C 166.609375 171.382812 165.632812 171.738281 164.652344 171.738281 Z M 164.652344 171.738281 "/>
<path style=" stroke:none;fill-rule:nonzero;fill:rgb(10.196079%,73.725492%,61.176473%);fill-opacity:1;" d="M 145.65625 183.199219 C 144 183.199219 142.449219 182.164062 141.878906 180.507812 L 139.261719 172.949219 C 138.53125 170.863281 139.640625 168.585938 141.726562 167.863281 C 143.816406 167.125 146.097656 168.242188 146.8125 170.332031 L 149.433594 177.890625 C 150.160156 179.976562 149.050781 182.257812 146.964844 182.976562 C 146.53125 183.128906 146.089844 183.199219 145.65625 183.199219 Z M 145.65625 183.199219 "/>
<path style=" stroke:none;fill-rule:nonzero;fill:rgb(36.470589%,73.725492%,61.56863%);fill-opacity:1;" d="M 39.898438 142 C 33.558594 138.523438 28.5625 135.496094 24.46875 132.648438 C 29.296875 128.949219 34.730469 125.378906 39.347656 122.457031 C 41.632812 125.472656 43.914062 128.523438 46.089844 131.5625 C 44.058594 135.0625 41.964844 138.5625 39.898438 142 Z M 39.898438 142 "/>
<path style=" stroke:none;fill-rule:nonzero;fill:rgb(10.196079%,73.725492%,61.176473%);fill-opacity:1;" d="M 38.378906 127.824219 C 39.363281 129.136719 40.347656 130.464844 41.316406 131.796875 C 40.371094 133.40625 39.414062 135.015625 38.460938 136.621094 C 35.890625 135.164062 33.574219 133.789062 31.472656 132.472656 C 33.785156 130.847656 36.136719 129.28125 38.378906 127.824219 M 39.828125 117.792969 C 39.460938 117.792969 39.085938 117.890625 38.757812 118.101562 C 31.804688 122.46875 25.324219 126.777344 19.859375 131.179688 C 18.855469 131.988281 18.886719 133.542969 19.925781 134.3125 C 25.53125 138.457031 32.402344 142.503906 39.734375 146.46875 C 40.027344 146.625 40.34375 146.699219 40.65625 146.699219 C 41.304688 146.699219 41.9375 146.371094 42.292969 145.78125 C 44.921875 141.40625 47.617188 136.925781 50.183594 132.457031 C 50.574219 131.777344 50.539062 130.9375 50.089844 130.296875 C 47.320312 126.375 44.359375 122.441406 41.421875 118.570312 C 41.027344 118.058594 40.433594 117.792969 39.828125 117.792969 Z M 39.828125 117.792969 "/>
<path style=" stroke:none;fill-rule:nonzero;fill:rgb(36.470589%,73.725492%,61.56863%);fill-opacity:1;" d="M 67.8125 81.746094 C 68.597656 81.722656 69.386719 81.699219 70.175781 81.671875 C 69.515625 82.492188 68.871094 83.324219 68.246094 84.171875 C 68.105469 83.363281 67.960938 82.554688 67.8125 81.746094 Z M 67.8125 81.746094 "/>
<path style=" stroke:none;fill-rule:nonzero;fill:rgb(10.196079%,73.725492%,61.176473%);fill-opacity:1;" d="M 74.726562 77.496094 C 74.695312 77.496094 74.667969 77.496094 74.636719 77.496094 C 71.425781 77.628906 68.207031 77.730469 65.035156 77.824219 C 63.96875 77.855469 63.199219 78.820312 63.394531 79.871094 C 64.007812 83.128906 64.59375 86.414062 65.128906 89.714844 C 65.304688 90.792969 66.195312 91.402344 67.105469 91.402344 C 67.730469 91.402344 68.363281 91.113281 68.769531 90.476562 C 70.960938 87.03125 73.449219 83.796875 76.1875 80.792969 C 77.363281 79.511719 76.4375 77.496094 74.726562 77.496094 Z M 74.726562 77.496094 "/>
<path style=" stroke:none;fill-rule:nonzero;fill:rgb(36.470589%,73.725492%,61.56863%);fill-opacity:1;" d="M 53.230469 113.859375 C 54.003906 113.378906 54.785156 112.898438 55.558594 112.421875 C 55.300781 113.628906 55.066406 114.835938 54.867188 116.050781 C 54.320312 115.316406 53.777344 114.585938 53.230469 113.859375 Z M 53.230469 113.859375 "/>
<path style=" stroke:none;fill-rule:nonzero;fill:rgb(10.196079%,73.725492%,61.176473%);fill-opacity:1;" d="M 58.773438 106.042969 C 58.421875 106.042969 58.050781 106.140625 57.703125 106.359375 C 54.953125 108.09375 52.179688 109.808594 49.441406 111.492188 C 48.328125 112.175781 48.058594 113.648438 48.847656 114.6875 C 50.785156 117.246094 52.714844 119.839844 54.601562 122.449219 C 55.015625 123.023438 55.621094 123.289062 56.210938 123.289062 C 57.160156 123.289062 58.085938 122.621094 58.191406 121.488281 C 58.613281 117.046875 59.453125 112.730469 60.660156 108.570312 C 61.050781 107.207031 59.992188 106.042969 58.773438 106.042969 Z M 58.773438 106.042969 "/>
<path style=" stroke:none;fill-rule:nonzero;fill:rgb(36.470589%,73.725492%,61.56863%);fill-opacity:1;" d="M 16.832031 118.097656 C 17.46875 110.910156 18.789062 103.832031 20.777344 96.949219 C 23.558594 101.328125 26.628906 105.601562 29.488281 109.449219 C 24.566406 112.605469 20.4375 115.425781 16.832031 118.097656 Z M 16.832031 118.097656 "/>
<path style=" stroke:none;fill-rule:nonzero;fill:rgb(10.196079%,73.725492%,61.176473%);fill-opacity:1;" d="M 22.515625 106.667969 C 22.933594 107.253906 23.34375 107.832031 23.761719 108.402344 C 23.152344 108.808594 22.554688 109.203125 21.96875 109.597656 C 22.140625 108.617188 22.320312 107.640625 22.515625 106.667969 M 20.191406 90.132812 C 19.386719 90.132812 18.589844 90.597656 18.296875 91.476562 C 15.046875 101.234375 13.0625 111.570312 12.535156 122.292969 C 12.476562 123.507812 13.492188 124.375 14.558594 124.375 C 14.976562 124.375 15.394531 124.242188 15.769531 123.953125 C 21.046875 119.769531 27.035156 115.726562 33.449219 111.667969 C 34.433594 111.042969 34.679688 109.707031 33.980469 108.777344 C 29.457031 102.738281 25.261719 96.859375 21.894531 91.101562 C 21.511719 90.449219 20.847656 90.132812 20.191406 90.132812 Z M 20.191406 90.132812 "/>
<path style=" stroke:none;fill-rule:nonzero;fill:rgb(36.470589%,73.725492%,61.56863%);fill-opacity:1;" d="M 54.761719 179.449219 C 48.710938 178.941406 43.210938 178.324219 38.34375 177.609375 C 40.3125 173.574219 42.742188 169.105469 45.960938 163.570312 L 56.050781 168.722656 C 55.566406 172.308594 55.132812 175.902344 54.761719 179.449219 Z M 54.761719 179.449219 "/>
<path style=" stroke:none;fill-rule:nonzero;fill:rgb(10.196079%,73.725492%,61.176473%);fill-opacity:1;" d="M 47.535156 168.867188 L 48.199219 169.207031 L 49.132812 169.683594 C 49.996094 170.125 50.859375 170.5625 51.71875 171 C 51.542969 172.371094 51.375 173.742188 51.214844 175.113281 C 48.878906 174.886719 46.636719 174.648438 44.488281 174.386719 C 45.40625 172.667969 46.414062 170.839844 47.535156 168.867188 M 45.203125 158.941406 C 44.511719 158.941406 43.835938 159.300781 43.464844 159.933594 C 39.746094 166.257812 36.328125 172.386719 33.570312 178.332031 C 33.015625 179.53125 33.761719 180.9375 35.0625 181.148438 C 41.769531 182.234375 49.125 183.023438 56.398438 183.59375 C 56.453125 183.597656 56.503906 183.597656 56.550781 183.597656 C 57.574219 183.597656 58.445312 182.796875 58.542969 181.761719 C 59.089844 176.183594 59.707031 171.425781 60.214844 167.855469 C 60.335938 167.011719 59.917969 166.203125 59.15625 165.816406 C 57.050781 164.734375 54.910156 163.644531 52.757812 162.546875 C 50.542969 161.421875 48.324219 160.292969 46.109375 159.152344 C 45.820312 159.007812 45.511719 158.941406 45.203125 158.941406 Z M 45.203125 158.941406 "/>
<path style=" stroke:none;fill-rule:nonzero;fill:rgb(36.470589%,73.725492%,61.56863%);fill-opacity:1;" d="M 43.339844 100.808594 C 39.238281 95.328125 35.164062 89.625 32.0625 84.191406 C 38.414062 83.0625 45.230469 82.585938 51.371094 82.296875 C 52.050781 85.878906 52.835938 90.1875 53.507812 94.503906 C 52.589844 95.066406 51.652344 95.609375 50.714844 96.15625 C 48.554688 97.414062 46.324219 98.726562 44.167969 100.238281 C 43.890625 100.4375 43.613281 100.625 43.339844 100.808594 Z M 43.339844 100.808594 "/>
<path style=" stroke:none;fill-rule:nonzero;fill:rgb(10.196079%,73.725492%,61.176473%);fill-opacity:1;" d="M 48.078125 86.472656 C 48.433594 88.402344 48.789062 90.414062 49.125 92.453125 C 48.980469 92.535156 48.832031 92.625 48.6875 92.707031 C 47.242188 93.550781 45.765625 94.421875 44.28125 95.359375 C 42.3125 92.667969 40.394531 89.953125 38.648438 87.273438 C 41.800781 86.902344 44.992188 86.65625 48.078125 86.472656 M 53.003906 78.21875 C 52.976562 78.21875 52.949219 78.21875 52.921875 78.21875 C 44.164062 78.59375 35.890625 79.230469 28.558594 80.800781 C 27.289062 81.070312 26.609375 82.503906 27.210938 83.65625 C 30.714844 90.34375 35.78125 97.429688 41.335938 104.804688 C 41.695312 105.285156 42.253906 105.535156 42.816406 105.535156 C 43.152344 105.535156 43.488281 105.449219 43.792969 105.261719 C 44.6875 104.707031 45.582031 104.140625 46.476562 103.511719 C 49.769531 101.195312 53.339844 99.351562 56.742188 97.203125 C 57.425781 96.777344 57.78125 95.988281 57.664062 95.195312 C 56.894531 90.066406 55.953125 84.914062 54.980469 79.839844 C 54.796875 78.894531 53.960938 78.21875 53.003906 78.21875 Z M 53.003906 78.21875 "/>
<path style=" stroke:none;fill-rule:nonzero;fill:rgb(36.470589%,73.725492%,61.56863%);fill-opacity:1;" d="M 24.292969 169.433594 C 21.527344 162.507812 19.472656 155.324219 18.152344 147.984375 C 21.976562 150.5 26.355469 153.109375 31.566406 155.984375 C 28.660156 161.011719 26.289062 165.398438 24.292969 169.433594 Z M 24.292969 169.433594 "/>
<path style=" stroke:none;fill-rule:nonzero;fill:rgb(10.196079%,73.725492%,61.176473%);fill-opacity:1;" d="M 24.140625 156.375 C 24.78125 156.746094 25.433594 157.125 26.101562 157.503906 C 25.730469 158.160156 25.371094 158.804688 25.023438 159.441406 C 24.710938 158.421875 24.414062 157.398438 24.140625 156.375 M 15.460938 141.710938 C 14.335938 141.710938 13.289062 142.695312 13.460938 143.96875 C 14.96875 154.9375 18.011719 165.40625 22.371094 175.171875 C 22.714844 175.945312 23.433594 176.328125 24.152344 176.328125 C 24.894531 176.328125 25.644531 175.925781 26.007812 175.132812 C 28.839844 168.953125 32.28125 162.675781 36.050781 156.230469 C 36.621094 155.261719 36.273438 154.003906 35.285156 153.464844 C 28.511719 149.785156 22.105469 146.003906 16.585938 142.074219 C 16.230469 141.824219 15.84375 141.710938 15.460938 141.710938 Z M 15.460938 141.710938 "/>
<path style=" stroke:none;fill-rule:nonzero;fill:rgb(36.470589%,73.725492%,61.56863%);fill-opacity:1;" d="M 64.71875 65.566406 C 63.328125 58.179688 62.292969 51.878906 61.804688 46.136719 C 66.882812 47.707031 72.609375 49.789062 79.824219 52.675781 C 79.101562 55.21875 76.320312 65.175781 76.320312 65.175781 C 72.460938 65.34375 68.550781 65.457031 64.71875 65.566406 Z M 64.71875 65.566406 "/>
<path style=" stroke:none;fill-rule:nonzero;fill:rgb(10.196079%,73.725492%,61.176473%);fill-opacity:1;" d="M 66.476562 51.894531 C 69.070312 52.808594 71.878906 53.851562 74.988281 55.0625 C 74.609375 56.414062 74.230469 57.769531 73.855469 59.117188 L 73.667969 59.789062 L 73.246094 61.296875 C 71.511719 61.359375 69.765625 61.414062 68.027344 61.46875 C 67.410156 58.050781 66.886719 54.878906 66.476562 51.894531 M 59.59375 41.382812 C 58.496094 41.382812 57.542969 42.308594 57.605469 43.46875 C 57.992188 50.800781 59.382812 58.953125 61.007812 67.496094 C 61.238281 68.714844 62.296875 69.601562 63.527344 69.601562 C 63.550781 69.601562 63.574219 69.601562 63.601562 69.601562 C 68.328125 69.46875 73.199219 69.332031 77.964844 69.105469 C 78.816406 69.0625 79.539062 68.492188 79.773438 67.667969 C 80.304688 65.78125 80.835938 63.863281 81.375 61.933594 C 82.292969 58.644531 83.210938 55.339844 84.160156 52.042969 C 84.445312 51.058594 83.9375 50.015625 82.988281 49.632812 C 75.171875 46.472656 67.410156 43.546875 60.140625 41.460938 C 59.957031 41.40625 59.773438 41.382812 59.59375 41.382812 Z M 59.59375 41.382812 "/>
<path style=" stroke:none;fill-rule:nonzero;fill:rgb(36.470589%,73.725492%,61.56863%);fill-opacity:1;" d="M 34.234375 67.4375 C 37.730469 62.046875 41.699219 56.953125 46.089844 52.210938 C 46.671875 56.976562 47.484375 61.78125 48.289062 66.167969 C 42.957031 66.472656 38.367188 66.886719 34.234375 67.4375 Z M 34.234375 67.4375 "/>
<path style=" stroke:none;fill-rule:nonzero;fill:rgb(10.196079%,73.725492%,61.176473%);fill-opacity:1;" d="M 47.597656 45.738281 C 47.109375 45.738281 46.613281 45.921875 46.214844 46.316406 C 39.425781 53.117188 33.464844 60.746094 28.523438 69.058594 C 27.726562 70.398438 28.761719 72.070312 30.230469 72.070312 C 30.34375 72.070312 30.457031 72.0625 30.570312 72.042969 C 36.957031 70.953125 43.800781 70.390625 50.765625 70.050781 C 51.976562 69.992188 52.855469 68.875 52.632812 67.683594 C 51.316406 60.683594 50.175781 53.929688 49.613281 47.550781 C 49.511719 46.445312 48.5625 45.738281 47.597656 45.738281 Z M 47.597656 45.738281 "/>
<path style=" stroke:none;fill-rule:nonzero;fill:rgb(36.470589%,73.725492%,61.56863%);fill-opacity:1;" d="M 84.539062 37.039062 C 79.476562 35.035156 75.058594 33.398438 71.011719 32.03125 C 76.941406 28.5 83.1875 25.527344 89.664062 23.152344 C 87.910156 27.351562 86.21875 31.945312 84.539062 37.039062 Z M 84.539062 37.039062 "/>
<path style=" stroke:none;fill-rule:nonzero;fill:rgb(10.196079%,73.725492%,61.176473%);fill-opacity:1;" d="M 82.574219 30.429688 C 82.414062 30.878906 82.257812 31.335938 82.09375 31.796875 C 81.648438 31.625 81.207031 31.457031 80.773438 31.292969 C 81.371094 30.996094 81.972656 30.707031 82.574219 30.429688 M 93.339844 17.773438 C 93.144531 17.773438 92.9375 17.804688 92.726562 17.867188 C 82.910156 21.015625 73.671875 25.4375 65.195312 30.941406 C 63.777344 31.859375 64.125 34.019531 65.738281 34.523438 C 72.023438 36.484375 78.523438 38.929688 85.050781 41.546875 C 85.296875 41.644531 85.546875 41.691406 85.792969 41.691406 C 86.632812 41.691406 87.414062 41.15625 87.6875 40.304688 C 89.882812 33.4375 92.316406 26.804688 95.121094 20.648438 C 95.746094 19.269531 94.710938 17.773438 93.339844 17.773438 Z M 93.339844 17.773438 "/>
<path style=" stroke:none;fill-rule:nonzero;fill:rgb(36.470589%,73.725492%,61.56863%);fill-opacity:1;" d="M 53.222656 210.96875 C 47.511719 205.8125 42.359375 200.101562 37.835938 193.914062 C 42.589844 194.597656 47.878906 195.179688 53.535156 195.660156 C 53.351562 200.117188 53.242188 205.59375 53.222656 210.96875 Z M 53.222656 210.96875 "/>
<path style=" stroke:none;fill-rule:nonzero;fill:rgb(10.196079%,73.725492%,61.176473%);fill-opacity:1;" d="M 47.097656 199.074219 C 47.859375 199.15625 48.628906 199.230469 49.402344 199.304688 C 49.382812 200.039062 49.363281 200.792969 49.34375 201.554688 C 48.585938 200.738281 47.832031 199.910156 47.097656 199.074219 M 33.515625 189.246094 C 31.992188 189.246094 30.960938 191.007812 31.855469 192.34375 C 38.019531 201.550781 45.480469 209.820312 53.960938 216.902344 C 54.339844 217.21875 54.777344 217.359375 55.203125 217.359375 C 56.242188 217.359375 57.234375 216.527344 57.230469 215.328125 C 57.183594 207.648438 57.339844 199.511719 57.621094 193.910156 C 57.671875 192.828125 56.867188 191.90625 55.785156 191.824219 C 48.316406 191.234375 40.777344 190.402344 33.847656 189.273438 C 33.730469 189.261719 33.625 189.246094 33.515625 189.246094 Z M 33.515625 189.246094 "/>
<path style=" stroke:none;fill-rule:nonzero;fill:rgb(36.470589%,73.725492%,61.56863%);fill-opacity:1;" d="M 128.105469 239.8125 C 107.40625 239.8125 87.214844 234.097656 69.640625 223.273438 C 69.363281 214.605469 69.492188 203.765625 69.773438 196.683594 C 81.210938 197.160156 96.6875 197.277344 101.308594 197.300781 C 109.941406 200.648438 118.957031 202.34375 128.117188 202.34375 C 132.117188 202.34375 136.171875 202.011719 140.171875 201.363281 C 172.894531 196.035156 198.910156 168.261719 202.035156 135.3125 C 204.050781 114.085938 197.3125 93.769531 183.0625 78.105469 C 169.011719 62.65625 148.980469 53.796875 128.113281 53.796875 C 127.230469 53.796875 126.347656 53.816406 125.4375 53.855469 L 135.375 38.359375 C 136.980469 35.859375 136.488281 32.507812 134.234375 30.566406 L 118.117188 16.789062 C 121.460938 16.484375 124.808594 16.332031 128.113281 16.332031 C 159.261719 16.332031 188.175781 28.835938 209.527344 51.535156 C 230.859375 74.21875 241.554688 103.910156 239.636719 135.132812 C 236.21875 190.816406 189.875 236.726562 134.125 239.65625 C 132.105469 239.761719 130.097656 239.8125 128.105469 239.8125 Z M 128.105469 239.8125 "/>
<path style=" stroke:none;fill-rule:nonzero;fill:rgb(10.196079%,73.725492%,61.176473%);fill-opacity:1;" d="M 128.414062 20.328125 C 158.332031 20.410156 186.097656 32.457031 206.613281 54.273438 C 227.183594 76.144531 237.492188 104.773438 235.644531 134.882812 C 232.347656 188.566406 187.664062 232.835938 133.910156 235.660156 C 131.984375 235.761719 130.03125 235.8125 128.109375 235.8125 C 108.871094 235.8125 90.089844 230.691406 73.574219 220.976562 C 73.421875 214.386719 73.476562 206.867188 73.636719 200.828125 C 84 201.167969 95.84375 201.269531 100.554688 201.296875 C 109.433594 204.644531 118.691406 206.34375 128.109375 206.34375 C 132.324219 206.34375 136.601562 205.996094 140.8125 205.3125 C 175.855469 199.613281 202.671875 170.980469 206.015625 135.691406 C 208.136719 113.328125 201.035156 91.925781 186.019531 75.421875 C 172.242188 60.277344 153.019531 51.140625 132.699219 49.941406 L 138.738281 40.523438 C 141.425781 36.34375 140.597656 30.753906 136.820312 27.523438 L 128.414062 20.328125 M 128.109375 12.328125 C 122.992188 12.328125 117.960938 12.675781 113.019531 13.328125 C 111.320312 13.550781 110.710938 15.71875 112.015625 16.832031 L 131.625 33.601562 C 132.382812 34.246094 132.546875 35.359375 132.007812 36.199219 L 119.894531 55.078125 C 119.039062 56.414062 120.003906 58.148438 121.535156 58.148438 C 121.605469 58.148438 121.675781 58.144531 121.746094 58.136719 C 123.839844 57.925781 125.957031 57.796875 128.109375 57.796875 C 169.183594 57.796875 202.027344 93.035156 198.050781 134.933594 C 195.070312 166.351562 170.679688 192.34375 139.527344 197.410156 C 135.660156 198.039062 131.847656 198.339844 128.109375 198.339844 C 118.898438 198.339844 110.132812 196.519531 102.074219 193.300781 C 96.117188 193.277344 79.398438 193.136719 67.933594 192.597656 C 67.898438 192.597656 67.867188 192.59375 67.835938 192.59375 C 66.78125 192.59375 65.921875 193.40625 65.867188 194.472656 C 65.484375 202.289062 65.339844 215.207031 65.679688 224.480469 C 65.703125 225.152344 66.058594 225.742188 66.628906 226.105469 C 84.445312 237.304688 105.511719 243.804688 128.109375 243.804688 C 130.167969 243.804688 132.242188 243.746094 134.328125 243.640625 C 192.476562 240.585938 240.054688 193.488281 243.625 135.367188 C 247.757812 68.144531 194.453125 12.328125 128.109375 12.328125 Z M 128.109375 12.328125 "/>
<path style=" stroke:none;fill-rule:nonzero;fill:rgb(36.470589%,73.725492%,61.56863%);fill-opacity:1;" d="M 54.320312 149.574219 C 54.9375 148.550781 55.554688 147.515625 56.167969 146.484375 C 56.585938 148.078125 57.050781 149.667969 57.570312 151.234375 Z M 54.320312 149.574219 "/>
<path style=" stroke:none;fill-rule:nonzero;fill:rgb(10.196079%,73.725492%,61.176473%);fill-opacity:1;" d="M 57.03125 139.054688 C 56.375 139.054688 55.710938 139.371094 55.3125 140.050781 C 53.640625 142.914062 51.941406 145.765625 50.257812 148.566406 C 50.179688 148.691406 50.070312 148.875 49.945312 149.089844 C 49.449219 149.910156 49.550781 151.625 50.761719 152.242188 C 52.507812 153.140625 54.96875 154.394531 56.507812 155.179688 C 58.316406 156.101562 60.101562 157.011719 61.863281 157.914062 C 62.136719 158.054688 62.414062 158.121094 62.675781 158.121094 C 63.578125 158.121094 64.292969 157.386719 63.914062 156.542969 C 61.679688 151.53125 59.996094 146.21875 58.980469 140.671875 C 58.789062 139.632812 57.914062 139.054688 57.03125 139.054688 Z M 57.03125 139.054688 "/>
<path style=" stroke:none;fill-rule:nonzero;fill:rgb(36.470589%,73.725492%,61.56863%);fill-opacity:1;" d="M 71.011719 180.460938 C 71.175781 178.910156 71.34375 177.445312 71.511719 176.058594 C 72.847656 177.636719 74.257812 179.15625 75.722656 180.621094 C 74.105469 180.574219 72.523438 180.519531 71.011719 180.460938 Z M 71.011719 180.460938 "/>
<path style=" stroke:none;fill-rule:nonzero;fill:rgb(10.196079%,73.725492%,61.176473%);fill-opacity:1;" d="M 70.144531 169.085938 C 69.21875 169.085938 68.304688 169.722656 68.15625 170.804688 C 67.726562 173.925781 67.253906 177.773438 66.816406 182.152344 C 66.703125 183.289062 67.542969 184.308594 68.683594 184.363281 C 72.402344 184.535156 76.691406 184.664062 80.976562 184.761719 C 80.992188 184.761719 81.007812 184.761719 81.027344 184.761719 C 82.859375 184.761719 83.722656 182.484375 82.324219 181.28125 C 78.378906 177.882812 74.816406 174.0625 71.707031 169.875 C 71.296875 169.332031 70.714844 169.085938 70.144531 169.085938 Z M 70.144531 169.085938 "/>
<path style=" stroke:none;fill-rule:nonzero;fill:rgb(36.470589%,73.725492%,61.56863%);fill-opacity:1;" d="M 110.144531 47.5625 C 106.753906 46.195312 103.253906 44.742188 99.632812 43.226562 C 101.617188 37.0625 103.515625 31.921875 105.480469 27.386719 L 116.847656 37.109375 Z M 110.144531 47.5625 "/>
<path style=" stroke:none;fill-rule:nonzero;fill:rgb(10.196079%,73.725492%,61.176473%);fill-opacity:1;" d="M 107.09375 34.023438 L 111.601562 37.878906 L 108.570312 42.605469 C 107.265625 42.066406 105.9375 41.519531 104.59375 40.960938 C 105.433594 38.480469 106.265625 36.179688 107.09375 34.023438 M 104.742188 22.136719 C 104.003906 22.136719 103.277344 22.535156 102.9375 23.277344 C 99.800781 30.078125 97.140625 37.664062 94.714844 45.515625 C 95.644531 45.902344 96.570312 46.292969 97.496094 46.675781 C 101.898438 48.511719 106.132812 50.277344 110.207031 51.898438 C 110.449219 51.996094 110.691406 52.039062 110.9375 52.039062 C 111.601562 52.039062 112.238281 51.699219 112.621094 51.109375 L 121.152344 37.800781 C 121.691406 36.960938 121.527344 35.847656 120.769531 35.199219 L 106.0625 22.628906 C 105.679688 22.292969 105.207031 22.136719 104.742188 22.136719 Z M 104.742188 22.136719 "/>
<path style=" stroke:none;fill-rule:nonzero;fill:rgb(36.470589%,73.725492%,61.56863%);fill-opacity:1;" d="M 94.96875 58.910156 C 95.035156 58.941406 97.097656 59.796875 98.078125 60.195312 C 96.71875 60.796875 95.378906 61.441406 94.0625 62.117188 Z M 94.96875 58.910156 "/>
<path style=" stroke:none;fill-rule:nonzero;fill:rgb(10.196079%,73.725492%,61.176473%);fill-opacity:1;" d="M 93.785156 54.242188 C 92.519531 54.242188 91.722656 55.671875 91.175781 57.605469 C 90.554688 59.804688 89.824219 62.40625 89.335938 64.148438 C 89.039062 65.214844 88.742188 66.273438 88.449219 67.316406 C 88.195312 68.207031 88.957031 68.949219 89.800781 68.949219 C 90.058594 68.949219 90.332031 68.875 90.578125 68.71875 C 94.8125 66.039062 99.347656 63.808594 104.128906 62.070312 C 105.839844 61.453125 105.886719 59.054688 104.199219 58.371094 C 101.734375 57.375 99.222656 56.34375 96.648438 55.277344 C 96.300781 55.132812 95.410156 54.722656 94.507812 54.382812 C 94.253906 54.289062 94.011719 54.242188 93.785156 54.242188 Z M 93.785156 54.242188 "/>
</g>
</svg>
